<svg xmlns="http://www.w3.org/2000/svg" xmlns:xlink="http://www.w3.org/1999/xlink" version="1.1" width="256" height="256" viewBox="0 0 256 256" xml:space="preserve">
<desc>Created with Fabric.js 1.7.22</desc>
<defs>
</defs>
<g transform="translate(128 128) scale(0.72 0.72)" style="">
	<g style="stroke: none; stroke-width: 0; stroke-dasharray: none; stroke-linecap: butt; stroke-linejoin: miter; stroke-miterlimit: 10; fill: none; fill-rule: nonzero; opacity: 1;" transform="translate(-175.05 -175.05000000000004) scale(3.89 3.89)" >
	<path d="M 45 69.65 c -13.592 0 -24.65 -11.059 -24.65 -24.65 S 31.408 20.35 45 20.35 S 69.65 31.408 69.65 45 S 58.592 69.65 45 69.65 z" style="stroke: none; stroke-width: 1; stroke-dasharray: none; stroke-linecap: butt; stroke-linejoin: miter; stroke-miterlimit: 10; fill: rgb(255,216,51); fill-rule: nonzero; opacity: 1;" transform=" matrix(1 0 0 1 0 0) " stroke-linecap="round" />
	<rect x="43" y="0" rx="0" ry="0" width="4" height="22.34" style="stroke: none; stroke-width: 1; stroke-dasharray: none; stroke-linecap: butt; stroke-linejoin: miter; stroke-miterlimit: 10; fill: rgb(255,216,51); fill-rule: nonzero; opacity: 1;" transform=" matrix(1 0 0 1 0 0) "/>
	<rect x="43" y="67.66" rx="0" ry="0" width="4" height="22.34" style="stroke: none; stroke-width: 1; stroke-dasharray: none; stroke-linecap: butt; stroke-linejoin: miter; stroke-miterlimit: 10; fill: rgb(255,216,51); fill-rule: nonzero; opacity: 1;" transform=" matrix(1 0 0 1 0 0) "/>
	<rect x="0" y="43" rx="0" ry="0" width="22.34" height="4" style="stroke: none; stroke-width: 1; stroke-dasharray: none; stroke-linecap: butt; stroke-linejoin: miter; stroke-miterlimit: 10; fill: rgb(255,216,51); fill-rule: nonzero; opacity: 1;" transform=" matrix(1 0 0 1 0 0) "/>
	<rect x="67.66" y="43" rx="0" ry="0" width="22.34" height="4" style="stroke: none; stroke-width: 1; stroke-dasharray: none; stroke-linecap: butt; stroke-linejoin: miter; stroke-miterlimit: 10; fill: rgb(255,216,51); fill-rule: nonzero; opacity: 1;" transform=" matrix(1 0 0 1 0 0) "/>
	<rect x="57.75" y="19.08" rx="0" ry="0" width="22.34" height="4" style="stroke: none; stroke-width: 1; stroke-dasharray: none; stroke-linecap: butt; stroke-linejoin: miter; stroke-miterlimit: 10; fill: rgb(255,216,51); fill-rule: nonzero; opacity: 1;" transform=" matrix(0.7071 -0.7071 0.7071 0.7071 5.2803 54.908) "/>
	<rect x="9.91" y="66.92" rx="0" ry="0" width="22.34" height="4" style="stroke: none; stroke-width: 1; stroke-dasharray: none; stroke-linecap: butt; stroke-linejoin: miter; stroke-miterlimit: 10; fill: rgb(255,216,51); fill-rule: nonzero; opacity: 1;" transform=" matrix(0.7071 -0.7071 0.7071 0.7071 -42.5595 35.092) "/>
	<rect x="19.08" y="9.91" rx="0" ry="0" width="4" height="22.34" style="stroke: none; stroke-width: 1; stroke-dasharray: none; stroke-linecap: butt; stroke-linejoin: miter; stroke-miterlimit: 10; fill: rgb(255,216,51); fill-rule: nonzero; opacity: 1;" transform=" matrix(0.7071 -0.7071 0.7071 0.7071 -8.7317 21.0801) "/>
	<rect x="66.92" y="57.75" rx="0" ry="0" width="4" height="22.34" style="stroke: none; stroke-width: 1; stroke-dasharray: none; stroke-linecap: butt; stroke-linejoin: miter; stroke-miterlimit: 10; fill: rgb(255,216,51); fill-rule: nonzero; opacity: 1;" transform=" matrix(0.7071 -0.7071 0.7071 0.7071 -28.5476 68.9199) "/>
	<rect x="65.69" y="33.12" rx="0" ry="0" width="6.34" height="4" style="stroke: none; stroke-width: 1; stroke-dasharray: none; stroke-linecap: butt; stroke-linejoin: miter; stroke-miterlimit: 10; fill: rgb(255,216,51); fill-rule: nonzero; opacity: 1;" transform=" matrix(0.9238 -0.3828 0.3828 0.9238 -8.1974 29.0362) "/>
	<rect x="17.97" y="52.88" rx="0" ry="0" width="6.34" height="4" style="stroke: none; stroke-width: 1; stroke-dasharray: none; stroke-linecap: butt; stroke-linejoin: miter; stroke-miterlimit: 10; fill: rgb(255,216,51); fill-rule: nonzero; opacity: 1;" transform=" matrix(0.9238 -0.3828 0.3828 0.9238 -19.4 12.2725) "/>
	<rect x="33.12" y="17.97" rx="0" ry="0" width="4" height="6.34" style="stroke: none; stroke-width: 1; stroke-dasharray: none; stroke-linecap: butt; stroke-linejoin: miter; stroke-miterlimit: 10; fill: rgb(255,216,51); fill-rule: nonzero; opacity: 1;" transform=" matrix(0.9239 -0.3827 0.3827 0.9239 -5.4162 15.048) "/>
	<rect x="52.88" y="65.69" rx="0" ry="0" width="4" height="6.34" style="stroke: none; stroke-width: 1; stroke-dasharray: none; stroke-linecap: butt; stroke-linejoin: miter; stroke-miterlimit: 10; fill: rgb(255,216,51); fill-rule: nonzero; opacity: 1;" transform=" matrix(0.9239 -0.3827 0.3827 0.9239 -22.174 26.2437) "/>
	<rect x="19.14" y="31.94" rx="0" ry="0" width="4" height="6.34" style="stroke: none; stroke-width: 1; stroke-dasharray: none; stroke-linecap: butt; stroke-linejoin: miter; stroke-miterlimit: 10; fill: rgb(255,216,51); fill-rule: nonzero; opacity: 1;" transform=" matrix(0.3827 -0.9239 0.9239 0.3827 -19.3944 41.2062) "/>
	<rect x="66.86" y="51.71" rx="0" ry="0" width="4" height="6.34" style="stroke: none; stroke-width: 1; stroke-dasharray: none; stroke-linecap: butt; stroke-linejoin: miter; stroke-miterlimit: 10; fill: rgb(255,216,51); fill-rule: nonzero; opacity: 1;" transform=" matrix(0.3827 -0.9239 0.9239 0.3827 -8.1955 97.5023) "/>
	<rect x="51.71" y="19.14" rx="0" ry="0" width="6.34" height="4" style="stroke: none; stroke-width: 1; stroke-dasharray: none; stroke-linecap: butt; stroke-linejoin: miter; stroke-miterlimit: 10; fill: rgb(255,216,51); fill-rule: nonzero; opacity: 1;" transform=" matrix(0.3828 -0.9238 0.9238 0.3828 14.3458 63.7492) "/>
	<rect x="31.94" y="66.86" rx="0" ry="0" width="6.34" height="4" style="stroke: none; stroke-width: 1; stroke-dasharray: none; stroke-linecap: butt; stroke-linejoin: miter; stroke-miterlimit: 10; fill: rgb(255,216,51); fill-rule: nonzero; opacity: 1;" transform=" matrix(0.3828 -0.9238 0.9238 0.3828 -41.9435 74.9423) "/>
</g>
</g>
</svg>